<?xml version="1.0" encoding="UTF-8"?>
<svg id="_레이어_2" data-name="레이어 2" xmlns="http://www.w3.org/2000/svg" viewBox="0 0 154.02 154.02">
  
  <g id="Graphic_Elements" data-name="Graphic Elements">
    <g>
      <path d="M153.98,70.88c-.07,6.69-.2,13.39-.76,20.06-.29,3.45-1.03,6.8-2.27,10.11-1.96,5.24-4.34,10.28-7.1,15.09-2.07,3.61-4.48,7.06-6.67,10.63-1.32,2.14-2.29,4.48-3.77,6.52-3.99,5.52-9.45,9.01-15.7,11.5-2.72,1.08-5.38,2.35-7.95,3.74-3.95,2.13-8.29,2.82-12.56,3.83-4.03.95-8.15.81-12.24.99-4.98.21-9.96.55-14.95.65-3.98.08-7.91-.48-11.83-1.19-6.08-1.11-11.77-3.2-17.23-6.07-4.34-2.28-8.71-4.52-12.98-6.94-5.61-3.19-9.78-7.97-13.81-12.86-2.54-3.08-4.82-6.31-6.91-9.71-2.29-3.74-3.05-7.92-3.93-12.1-1.53-7.3-.97-14.74-2.29-22.06-2.02-11.22-.88-22.68,2.01-33.62.81-3.08,1.37-6.2,2.08-9.29.74-3.19,1.39-6.43,2.77-9.43.21-.45.48-.9.83-1.24,1.63-1.6,2.32-3.82,3.85-5.53,2.59-2.89,5.81-4.92,8.91-7.11,3.35-2.36,7.15-3.86,10.89-5.45,6.28-2.68,12.66-5.14,19.08-7.46,5.99-2.17,12.17-3.34,18.56-3.43,4.44-.07,8.88-.37,13.33-.48,4.61-.12,9.19.42,13.77.91,3.04.33,6.07.68,9.06,1.33,4.27.93,8.06,3.03,11.98,4.86,5.28,2.46,9.23,6.57,13.63,10.19,7.63,6.27,12.08,14.5,15.93,23.29,2.3,5.25,3.85,10.7,5.43,16.16.86,2.94.58,5.98.83,8.97.14,1.71.03,3.43.03,5.15Z" fill="#ffd561"/>
      <path d="M74.72,73.94c-7.55-.57-14.52-2.33-21.21-5.24-1.71-.74-3-2.02-4.13-3.41-2.19-2.7-3.68-5.76-4.12-9.26-.2-1.62-.21-1.61,1.49-1.83.25-.03.5-.1.75-.1,2.38.06,2.43-.34,2.82,2.27.66,4.32,2.89,7.88,6.29,10.66.38.31.84.56,1.3.76,5.7,2.51,11.64,4.19,17.83,4.79,5.15.5,10.15-.45,14.7-2.88,3.46-1.85,6.19-4.69,8.3-8.05,1.7-2.7,3.13-5.53,4.07-8.58.19-.6.54-.91,1.17-.94.96-.05,1.92-.11,2.88-.16.88-.05,1.1.3.82,1.15-1.98,5.96-5.13,11.1-10.03,15.17-3.02,2.51-6.62,3.51-10.23,4.5-4.24,1.16-8.61,1.07-12.69,1.15Z" fill="#292929"/>
      <path d="M19.59,47.17c-.85-8.82,13.12-6.68,15.89-1.08,1.49,3.01.18,6.87-2.68,9.11-3.48,2.74-9.37,1.36-11.53-2.18-1.11-1.82-2.22-3.62-1.68-5.85Z" fill="#d6674c"/>
      <path d="M132.17,53.71c-.75,3.34-2,6.42-4.99,8.42-2.37,1.58-4.73.46-7.06-.27-.11-.04-.22-.1-.32-.15-4.31-2.26-4.42-3.72-3.17-8.01.48-1.65,1.29-3.13,2.69-4.25,1.92-1.53,3.99-2.42,6.46-1.79,2.31.58,4.4,1.52,5.76,3.68.48.76.72,1.48.63,2.39Z" fill="#d6674c"/>
      <path d="M99.5,29.2c4.01.21,6.6,2.28,7.97,6.1.92,2.58,1.23,5.28,1.87,7.92.24.99-.22,1.41-1.15,1.48-.42.03-.83.12-1.25.13-.75.01-1.58.19-2.24-.07-.82-.33-.09-1.22-.29-1.86-.85-2.71-1.03-5.61-2.19-8.22-.74-1.67-2.06-2.92-3.65-3.84-.73-.42-1.21-.06-1.77.41-2.86,2.41-4.36,5.68-5.65,9.06-.54,1.4-1.03,2.82-1.62,4.21-.08.18-.17.47-.31.51-1.42.37-2.88.49-4.33.21-.38-.07-.46-.46-.27-.82,1.29-2.4,1.86-5.1,3.1-7.54,1.17-2.28,2.62-4.26,4.5-5.97.64-.59,1.36-.97,2.19-1.14,1.68-.35,3.36-.67,5.1-.55Z" fill="#292929"/>
      <path d="M65.71,45.66c-1.66-.05-1.67-.05-1.71-1.7-.08-2.99-.44-5.92-1.81-8.64-.66-1.3-1.73-2.16-2.93-2.84-1.2-.67-2.31-.35-3.31.59-2.24,2.1-3.91,4.58-4.86,7.51-.66,2.02-1.24,4.07-1.82,6.11-.12.41-.36.55-.71.58-1.13.07-2.25.15-3.38.17-.77.01-1.09-.43-.81-1.16,1.11-2.93,1.67-6.05,3.21-8.83,1.03-1.86,2.41-3.41,3.96-4.83.97-.88,2.16-1.21,3.42-1.42,2.33-.38,4.65-.52,6.98-.09,2.6.48,4.36,2,5.42,4.37,1.3,2.88,1.53,5.97,1.64,9.08.02.65-.31.9-.9.93-.79.05-1.58.12-2.37.19Z" fill="#292929"/>
    </g>
  </g>
</svg>