<?xml version="1.0" encoding="UTF-8"?>
<svg id="_레이어_2" data-name="레이어 2" xmlns="http://www.w3.org/2000/svg" viewBox="0 0 154.02 154.02">
  
  <g id="Graphic_Elements" data-name="Graphic Elements">
    <g>
      <path d="M80,.05c4.66.12,9.32.37,13.95.92,2.07.25,4.02,1.02,5.98,1.72,4.06,1.45,8.24,2.63,11.94,4.97,2.26,1.44,4.54,2.87,6.52,4.75,1.58,1.49,3.37,2.74,4.97,4.21,2.37,2.18,4.24,4.9,6.79,6.88,3.96,3.07,7,6.99,9.28,11.39,1.61,3.11,3.78,5.71,5.72,8.52,3.51,5.07,6.16,10.46,6.88,16.73.34,2.96,1.34,5.79,1.73,8.75.57,4.24.2,8.4-1.08,12.45-.83,2.64-1.79,5.24-2.73,7.85-.36,1.01-.52,2.04-.62,3.1-.31,3.09-1.33,5.95-2.77,8.67-1.41,2.67-2.48,5.48-3.21,8.42-.91,3.67-3.03,6.72-4.9,9.91-2.68,4.57-5.47,9.08-9.54,12.48-3.6,3.01-7.31,5.89-11.4,8.27-5.55,3.24-11.15,6.31-17.17,8.57-3.93,1.48-8,2.16-12.11,2.69-2.78.36-5.37,1.5-8.1,2.11-2.84.64-5.63.84-8.53.27-1.79-.35-3.6-.7-5.42-.89-2.51-.27-4.71-1.47-7.05-2.27-3.78-1.29-7.48-2.8-11.19-4.3-1.09-.44-2.1-.95-2.98-1.75-1.02-.92-2.13-1.74-3.39-2.27-2.59-1.1-4.89-2.77-7.45-3.91-2.93-1.31-5.21-3.55-7.75-5.44-4.61-3.45-7.22-8.42-10.33-13.04-2.02-2.99-3.84-6.11-5.59-9.27-2.49-4.52-4.57-9.19-6.18-14.15-1.1-3.37-1.92-6.81-2.84-10.21-1.19-4.41-1.88-8.89-1.11-13.63.78-4.77,1.75-9.44,3.32-13.99,1.23-3.56,3.05-6.83,4.89-10.08.89-1.57,1.37-3.32,1.88-5,.73-2.4,1.78-4.59,3.36-6.42,2.83-3.29,5.34-6.8,7.67-10.47.77-1.2,1.78-2.19,2.92-3.05,3.12-2.34,5.96-5.03,8.95-7.52,3.76-3.13,7.94-5.77,12.2-8.18,2.69-1.51,5.68-2.33,8.63-3.22,2.41-.73,4.85-1.37,7.31-1.86,4.02-.8,8.06-1.55,12.1-2.24,2.12-.36,4.26-.64,6.43-.46Z" fill="#ffd561"/>
      <path d="M68.97,34.11c1.87.92,3.22,2.39,2.68,4.89-.75,3.44-2.4,6.42-5.34,8.35-2.12,1.39-4.7,1.85-7.28,1.83-1.95-.02-3.89-.17-5.54-1.41-.35-.27-.74-.5-.9-.93-1.12-3.02-2.28-6.01-1.2-9.34.35-1.07,1.19-1.45,1.96-1.96.64-.42,1.22-.83,1.69-1.47,2.09-2.81,7.08-1.82,9.91-1.22,1.31.28,2.79.65,4.04,1.27Z" fill="#fff"/>
      <path d="M104.11,34.48c1.36,1.63,2.02,3.58.75,5.96-.75,1.4-1.3,2.88-2.28,4.18-1.08,1.44-2.09,2.73-4.14,2.78-1.7.04-3.32.23-5.05-.26-1.51-.42-2.72-1.22-4.03-1.93-1.24-.67-1.8-1.73-2.01-3.06-.09-.55-.18-1.1-.32-1.64-.65-2.6.24-4.93,1.27-7.21.39-.86,1.29-1.29,2.15-1.62,2.2-.84,5.53-.79,7.86-.75.53,0,1.08.04,1.58.21.61.21,1.14.6,1.65.99.93.7,1.84,1.48,2.55,2.34Z" fill="#fff"/>
      <path d="M91.88,61.54c-1.72.1-3.04-.53-4.32-1.27-.45-.26-.54-.76-.68-1.22-.55-1.83-1.12-3.66-2.32-5.21-.4-.52-.83-.75-1.5-.75-3.24,0-6.27.7-9.24,2.06-6.86,3.13-11.65,8.37-15.52,14.63-.33.53-.7,1.07-.68,1.76.02.59-.42.48-.76.44-1.21-.14-2.31-.61-3.35-1.22-.73-.43-.42-1.02-.17-1.57,1.05-2.36,2.7-4.31,4.27-6.33,3.61-4.66,8.17-8.11,13.62-10.23,4.34-1.68,8.87-2.26,13.44-.69,3.2,1.1,5.07,3.45,6.1,6.58.32.98.53,1.99,1.11,3.04Z" fill="#292929"/>
      <path d="M68.96,35.5c-.35,1.06-.7,2.11-1.05,3.17-.25.77-.77,1.09-1.58,1.22-1.95.32-3.87.24-5.8-.05-.61-.09-.93-.31-.89-.99.09-1.47.13-2.94.2-4.41.27-.9.11-1.81.1-2.71-.01-.84.33-1.26,1.13-1.38,1.81-.27,3.64-.4,5.47-.3,1.58.09,2.53,1.13,2.65,2.73.07.93-.13,1.81-.24,2.72Z" fill="#292929"/>
      <path d="M94.76,33.38c.04-.12.07-.24.11-.37.13-.74.28-1.47.37-2.22.07-.52.37-.84.83-.91,2.3-.34,4.58-.56,6.68.87.48.33.69.63.77,1.21.19,1.48.01,2.94-.02,4.41-.63,1.57-1.23,2.99-3.37,3.13-1.5.1-3,.14-4.5.17-.65.01-.95-.31-1.12-.97-.36-1.41.12-2.76.11-4.14.23-.37-.14-.83.15-1.19Z" fill="#292929"/>
    </g>
  </g>
</svg>