<?xml version="1.0" encoding="UTF-8"?>
<svg id="_레이어_2" data-name="레이어 2" xmlns="http://www.w3.org/2000/svg" viewBox="0 0 154.02 154.02">
  
  <g id="Graphic_Elements" data-name="Graphic Elements">
    <g>
      <path d="M.36,82.15c0-4.62-.17-9.24.05-13.85.22-4.81.69-9.62,1.52-14.37.57-3.24,1.99-6.26,3.2-9.31,3.37-8.47,7.84-16.35,13.38-23.62,1.15-1.51,2.71-2.59,4.17-3.76,2.6-2.09,5.2-4.19,7.75-6.33,3.73-3.13,8.12-5.04,12.52-6.99C49.51,1.02,56.4.15,63.48.07c3.36-.04,6.71-.13,10.07,0,3.85.15,7.64.81,11.47,1.15,2.37.21,4.73.56,7.09.81,4.95.51,9.67,1.93,14.19,3.9,9.11,3.98,18.19,8.06,26.73,13.17,4.77,2.86,9.36,6.24,12.34,10.97,2.2,3.49,4.26,7.12,4.85,11.56.67,4.95,1.25,9.95,2.32,14.87,1.09,4.99,1.67,10.11,1.43,15.23-.2,4.31-.91,8.59-1.31,12.89-.2,2.1-.82,4.05-1.51,6.02-.85,2.41-.91,4.99-1.09,7.5-.44,6.27-1.92,12.32-3.93,18.23-1.22,3.57-3.52,6.6-5.94,9.49-4.84,5.76-9.93,11.26-16.35,15.35-1.33.85-2.77,1.56-4.21,2.21-5.71,2.58-11.42,5.16-17.28,7.39-4.85,1.85-9.96,2.42-15.07,3-5.8.65-11.5-.28-17.22-.92-3.98-.45-7.95-.96-11.94-1.32-3.39-.3-6.64-1.12-9.84-2.18-2.56-.85-5.23-1.45-7.58-2.86-4.44-2.66-9.03-5.06-13.54-7.6-6.18-3.47-10.24-8.74-13.03-15.16-1.64-3.77-3.63-7.39-5.72-10.95-1.81-3.09-2.97-6.5-4.34-9.8-1.57-3.78-2.76-7.68-3.57-11.67-.61-3.01-.54-6.12-.46-9.2.1,0,.2,0,.3,0Z" fill="#ffd561"/>
      <path d="M80.92,66.16c-3.17.08-6.4-.07-9.6-.32-2.74-.21-5.01-.63-7.04-1.22-2.83-.82-5.17-1.73-6.72-2.82-1.01-.71-1.46-1.46-2.14-2.2-.07-.07-.11-.15-.17-.22q-.55-.69,1.87-.7c2.52,0,2.53,0,3.08.74.84,1.14,1.7,2.3,3.89,3.28,5,2.24,9.21,3.18,18.46,3.14,4.95-.03,7.69-.89,10.23-1.96,2.22-.93,3.37-2.01,4.61-3.07.34-.3.7-.59,1.05-.89.04-.04.16-.08.13-.1-.6-.59.91-.46,1.85-.47,2.95-.01,3.87-.1,2.51.94-1.64,1.26-2.7,2.59-5.41,3.7-2.34.96-4.83,1.88-9.11,2.05-2.43.1-4.88.15-7.49.11Z" fill="#292929"/>
      <path d="M103.95,41.54c-.06-1.04-.01-2.08-.01-3.12h-.04c0-1.37,0-2.75,0-4.12,0-.45-.06-.96-.51-1.03-1.38-.21-2.48-1.23-3.84-1.38-3.74-.42-7.46-.34-11.07.9-1.03.35-1.63,1.05-1.47,2.16.38,2.62.49,5.29,1.72,7.73.98,1.94,2.52,3.14,4.61,3.36,2.31.25,4.69.3,6.95-.27,2.18-.55,3.82-1.49,3.66-4.24Z" fill="#fff"/>
      <path d="M64.15,34.38c-1.34-2.11-3.31-3.4-5.84-3.85-2.5-.45-4.86.43-7.29.59-.27.02-.65.17-.76.38-.76,1.49-1.86,2.84-2.02,4.6-.2,2.18.36,4.3.44,6.46.02.57.36,1.01.74,1.41,1.4,1.47,3.36,1.56,5.15,1.85,2.62.42,5.01-.51,7.39-1.64,1.79-.85,2.52-2.02,2.49-3.87-.01-.67,0-1.33,0-2.29-.14-1.02.43-2.48-.3-3.64Z" fill="#fff"/>
      <path d="M100.2,36.7c0-.89-.52-1.77-1.33-2.15-.9-.42-1.99-.21-2.94-.47-.92-.25-2.21.19-3.18.25-.84.06-1.28.42-1.24,1.34.09,2.45.15,4.9.2,7.36,0,.53.26.77.72.83,1.36.19,2.74.34,4.11.22.7-.06,1.4-.18,2.06-.42.81-.3.91-.5,1.17-1.3.59-1.85.46-3.76.45-5.66Z" fill="#292929"/>
      <path d="M60.24,33.56c.7.25.83.84.92,1.48.29,2.22-.1,4.49.6,6.68.2.63-.43,1.07-.99,1.24-2.19.68-4.44,1.09-6.74.78-1.16-.16-1.76-1.01-1.81-2.08-.1-2.16-.09-4.32-.03-6.48.02-.78.35-1.54,1.26-1.79.48.2.98.08,1.47.07,1.72-.17,3.43-.1,5.13.13.06,0,.12-.02.18-.03Z" fill="#292929"/>
    </g>
  </g>
</svg>