<?xml version="1.0" encoding="UTF-8"?>
<svg id="_레이어_2" data-name="레이어 2" xmlns="http://www.w3.org/2000/svg" viewBox="0 0 154.02 154.02">
  
  <g id="Graphic_Elements" data-name="Graphic Elements">
    <g>
      <path d="M153.81,91.85c-.11,2.23-.71,5.33-1.4,8.38-.9,3.97-3.09,7.44-5.38,10.8-.16.24-.37.45-.5.7-2.28,4.38-5.52,8.1-8.41,12.06-1.6,2.2-3.8,3.84-5.69,5.77-4.24,4.31-9.1,7.92-13.74,11.77-2.78,2.3-5.88,4.05-9.3,5.44-3.85,1.57-7.76,2.57-11.82,3.33-2.83.53-5.7.78-8.49,1.56-1.42.4-2.68,1.26-4.23,1.3-3.9.09-7.76.82-11.68.69-1.23-.04-2.47.05-3.69.21-4.41.58-8.69-.55-12.98-1.13-3.05-.41-5.78-2.05-8.33-3.8-2.86-1.95-5.86-3.64-9.07-4.96-4.08-1.68-7.47-4.45-10.83-7.19-5.46-4.45-10.26-9.58-14.72-14.99-4.73-5.73-8.52-12-10.09-19.39-.71-3.35-1.96-6.57-2.4-9.99-.23-1.75-.14-3.51-.11-5.25.09-4.88-1.05-9.72-.94-14.67.22-9.79-1.02-19.97,4.47-28.65,1.38-2.18,2.56-4.47,3.76-6.76,1.54-2.95,3.43-5.66,6.03-7.84,2.99-2.5,5.78-5.25,9.31-7.05.43-.22.83-.56,1.14-.93,3.47-4.06,7.74-7.22,12.56-9.33,4.98-2.18,9.55-5.13,14.6-7.13,5.37-2.13,10.8-4.18,16.61-4.41,4.55-.18,9.14-.76,13.68-.05,2.84.44,5.62,1.2,8.42,1.88,4.16,1.01,8.33,2.02,12.13,4.04,5.5,2.93,11.21,5.47,16.44,8.93,2.6,1.72,5.15,3.5,7.61,5.41,1.32,1.02,2.33,2.32,3.39,3.56,2.36,2.78,4.69,5.59,6.99,8.42,1.4,1.72,2.01,3.93,3.42,5.66.95,1.17,1.72,2.5,2.71,3.65,2.43,2.82,3.06,6.38,4.16,9.74.71,2.18,1.59,4.28,2.51,6.38,1.07,2.44,1.78,4.94,1.76,7.69-.01,2.71.17,5.44.89,8.11,1.53,5.62,1.63,11.36,1.21,18.04Z" fill="#ffd561"/>
      <path d="M74.75,77.36c3.91-1.49,7.97-2.61,12.09-3.35.4,1.6.55,3.25.46,4.89-.02.36-.07.75-.31,1.01-.21.23-.53.31-.83.39-7.23,1.8-14.65,2.81-22.1,2.98-.2,0-.43,0-.59-.11-.3-.21-.28-.65-.22-1.01.46-2.69,1.31-9.24,3.96-10.9,3.63-2.27,7.64,2.84,7.54,6.1Z" fill="#d6674c"/>
      <path d="M38.92,34.15c2.63.19,2.62.24,1.57,2.66-1.61,3.71-3.78,7.09-6.15,10.35-.91,1.25-1.72,2.57-2.49,3.9-.34.58-.71.83-1.36.76-.77-.08-1.54-.1-2.31-.19-1.37-.16-1.55-.52-.78-1.7,1.4-2.14,2.77-4.32,4.29-6.38,2.02-2.74,3.4-5.8,4.61-8.95.19-.48.47-.62.91-.59.57.03,1.13.09,1.7.13Z" fill="#292929"/>
      <path d="M121.37,42.87c-.14.13-.3.33-.5.45-1.02.6-2.15.9-3.29,1.17-.4.09-.71-.12-.99-.36-2-1.73-4.28-3.07-6.43-4.59-2.07-1.47-3.86-3.34-5.74-5.07-.6-.55-1.13-1.17-1.66-1.78-.72-.82-.64-1.31.28-1.85.96-.56,2.02-.82,3.08-1.08.28-.07.54-.1.74.22,2.19,3.5,5.37,5.97,8.68,8.29,1.79,1.26,3.68,2.39,5.31,3.87.2.18.48.32.51.72Z" fill="#292929"/>
      <path d="M91.29,78.82c-.03-.93.13-1.87.2-2.8.16-2.19.34-4.38-.13-6.56-.74-3.39-2.8-5.9-5.77-7.31-2.29-1.09-5.01-1.12-7.54-.49-5.89,1.47-10.18,5.23-13.8,9.9-2.42,3.11-2.76,6.79-2.91,10.52-.03.69.44.76.95.84,1.49.25,2.98.2,4.48.11,5.42-.32,10.87.06,16.25-.96,2.23-.42,4.5-.61,6.68-1.26.99-.29,1.62-.82,1.58-1.99ZM85.41,79.84c-2.08.59-4.24.69-6.33,1.16-3.81.85-7.69.25-11.51.79-1.01.15-1.3-.21-1.3-1.34,0-6.33,3.92-10.26,8.27-13.98,1.89-1.62,4.11-2.58,6.4-3.45.63-.24,1.09-.12,1.66.28,3.33,2.36,4.44,5.66,4.24,9.56-.04.77-.12,1.54-.18,2.31.02,0,.04,0,.06,0-.09,1.14-.22,2.27-.26,3.41-.02.74-.36,1.06-1.04,1.26Z" fill="#292929"/>
      <path d="M55.6,65.26c.17-.5.3-1-.21-1.32-.9-.57-1.72-1.38-2.77-1.58-2.83-.56-5.3-2.01-7.98-2.92-2.93-1-5.87-1.95-9.04-1.69-2.36.19-4.76.42-6.61,2.05-4.1,3.63-6.8,7.96-6.48,13.69.17,3.03.52,5.95,2.92,8.21.46.43.77,1.06,1.07,1.64.51,1,.43,2-.27,2.88-1.73,2.19-3.55,4.29-5.74,6.06-2.66,2.15-4.91,4.6-5.75,8.05-.39,1.61-.2,2.96,1.21,4.05,1,.78,1.88,1.71,2.85,2.54,1.52,1.29,1.58,2.62.04,3.97-1.17,1.03-2.36,2.06-3.66,2.92-1.77,1.17-3.31,2.52-4.65,4.03.95,1.35,1.96,2.66,3.02,3.95,4.46,5.41,9.26,10.54,14.72,14.99,3.36,2.74,6.75,5.5,10.83,7.19.63.26,1.25.55,1.87.84,1.85-.59,2.8-1.85,2.96-3.71.23-2.59.62-5.17.15-7.81-.76-4.33-1.22-8.72-3.16-12.77-.37-.76-.22-1.49.31-2.18.85-1.11,1.66-2.24,2.44-3.39,1.86-2.79,4.16-5.31,5.41-8.47,1.51-3.81,2.34-7.54-1.15-10.86-1.03-.98-1.03-2.35-1.04-3.67-.03-2.71,1.35-4.92,2.53-7.21,1.1-2.14,2.32-4.24,2.54-6.72.07-.78.04-1.53-.2-2.3-.72-2.28.52-4.11,1.49-6,.76-1.49,1.78-2.85,2.34-4.45Z" fill="#8cbbe8"/>
      <path d="M143.09,111.65c.03-.54,0-1.07-.19-1.53-.95-2.26-1.94-4.47-3.25-6.38-1.36-1.98-2.8-3.84-4.13-5.85-.92-1.39-1.17-3.06-.63-5,.58-2.09,1.06-4.24,1.66-6.32.43-1.48.77-2.99.73-4.54-.07-3.42-.39-6.7-2.93-8.3-.54-.34-1.07-.66-1.65-.83-1.55-.46-3.1-.9-4.66-1.33-1.56-.43-1.58-.43-1.79-2.62-.3-3.17-1.08-6.03-2.85-8.05-1.92-2.19-3.85-4.42-6.47-4.94-2.47-.49-4.95-.95-7.46-1.12-2.58-.17-5.21-.1-7.53-1.85-.56-.04-1.13-.09-1.69-.13-1.58-.14-2.2,1.43-2.77,3.11-.2.58-.26,1.2-.31,1.81-.14,1.68-.29,3.35-.4,5.03-.17,2.82.37,5.31,1.73,7.3,1,1.47,1.82,3.12,2.67,4.75.63,1.22,1.23,2.51,2.08,3.43,1.3,1.41,1.93,3.28,2.12,5.54.33,3.96.48,7.89-1.4,11.51-.49.95-.78,2.05-.96,3.21-.4,2.57-.77,5.15-.94,7.75-.37,5.8,1,10.47,4.43,13.51,1.8,1.59,3.15,3.64,4.2,6.15,1.13,2.71,1.1,5.74.14,8.51-1.34,3.87-1.99,8.05-3.39,11.88-.16.44-.22.83-.22,1.2.72-.26,1.45-.51,2.17-.8,3.42-1.4,6.53-3.14,9.3-5.44,4.64-3.85,9.5-7.46,13.74-11.77,1.89-1.93,4.09-3.56,5.69-5.77.77-1.05,1.56-2.09,2.35-3.12.13-.27.25-.55.4-.82,1.38-2.42,2.02-5.21,2.21-8.19Z" fill="#8cbbe8"/>
      <path d="M44.41,52.91c1.89-2.33,5.02-4.14,7.79-3.74.72.11,1.46.16,2.19.19,3.73.14,4.81,2.7,4.9,5.71.11,3.36-1.56,6-3.59,8.45-.65.78-1.62,1.11-2.61,1.18-2.2.16-4.38-.06-6.54-.51-3.67-.77-4.65-6.2-3.46-9.13.3-.74.75-1.47,1.31-2.16Z" fill="#fefefe"/>
      <path d="M107.38,45.64c-4.86-1.67-14.86-1.3-14.4,5.77.08,1.24.61,2.41,1.14,3.54.27.57.53,1.15.9,1.67,1.26,1.79,3.5,2.7,5.68,3.27,1.24.32,2.55.56,3.82.38,3.65-.53,6.42-3.44,7.16-6.67.69-3-1.05-6.85-4.3-7.96Z" fill="#fdfdfd"/>
      <path d="M44.92,53.33c1.6-.59,3.23-1.1,4.79-1.8,1.9-.85,3.82-.58,5.75-.33.52.07.93.34.87.97-.08.89-.01,1.81-.41,2.64-.99,2.09-1.71,4.32-2.99,6.27-.13.2-.21.45-.35.64-.48.64-.29,1.81-1.2,2-1.27.27-2.59-.03-3.88-.22-.42-.06-.53-.42-.31-.84.43-.83.77-1.71,1.24-2.51,1.19-2.04,1.94-4.27,2.9-6.48-2.7.76-5.13,2.37-8.04,1.96-.73-.39-1.7-.04-2.44-.83,1.43-.47,2.84-.72,4.08-1.46Z" fill="#292929"/>
      <path d="M93.56,49.84c2.67-1.05,5.31-2.22,8.03-3.12,1.59-.53,3.29-.06,4.92.24.21.04.48.2.48.49,0,.24-.25.34-.43.34-2.07,0-3.71,1.31-5.6,1.85-.85.25-1.67.61-2.7,1,2.57,2.46,4.25,5.62,7.09,7.76.41.51.55.99-.33.98-1.78-.03-3.65.19-4.97-1.45-.5-.08-.99-.28-1.24-.7-.81-1.33-2.15-2.2-2.94-3.54-.45-.76-1.12-1.38-1.76-2.01-.32-.32-.78-.61-.64-1.2.03-.21.05-.43.08-.64Z" fill="#292a2a"/>
    </g>
  </g>
</svg>