<?xml version="1.0" encoding="UTF-8"?>
<svg id="_레이어_2" data-name="레이어 2" xmlns="http://www.w3.org/2000/svg" viewBox="0 0 154.02 154.02">
  
  <g id="Graphic_Elements" data-name="Graphic Elements">
    <g>
      <path d="M154.02,63.22c-.13-.2-.21-.4-.25-.61,0-.43-.03-.85-.06-1.27,0-.23-.02-.45-.06-.68-.09-.79-.24-1.57-.42-2.34-.68-2.86-1.46-5.7-2.1-8.57-.03-.43-.2-.82-.34-1.21-1.78-5.12-3.81-10.15-6.16-15.03-1.38-2.87-2.7-5.85-4.94-8.15-3.15-3.25-6.23-6.57-9.4-9.8-5.41-5.52-12.04-9.13-19.09-11.79C103.55.89,95.4.24,87.27.07c-6.44-.13-12.88-.04-19.32-.02-1.83,0-3.67.11-5.49.33-3.04.38-5.99,1.17-8.9,2.12-5.28,1.74-10.57,3.49-15.78,5.44-6.24,2.32-12.33,4.84-17.98,8.53-4.63,3.03-7.7,7.23-10.7,11.63-.19.28-.33.59-.45.9-1.09,3.08-2.13,6.18-2.88,9.37-.5,2.13-.89,4.28-1.6,6.35-1.04,3.02-1.86,6.1-2.56,9.22C.58,58.56-.19,63.17.04,67.93c.11,2.14.03,4.29.01,6.43-.02,2.86-.11,5.72.78,8.49.23.72.11,1.5.12,2.26.08,5.75-.33,11.51.74,17.22.62,3.34.84,6.77,2.29,9.91,1.2,2.59,2.52,5.11,4.07,7.53,1.93,3.01,4.08,5.85,6.3,8.64,3.5,4.38,7.4,8.33,12.31,11.17,4.49,2.6,8.92,5.31,13.47,7.81,6.09,3.35,12.58,5.4,19.45,6.32,1.35.18,2.74.08,4.09.32h27.35c.13-.13.3-.12.47-.13,3.86-.09,7.62-.82,11.33-1.85,2.15-.6,4.12-1.65,6.13-2.56,4.11-1.86,8.39-3.32,12.42-5.4,4.28-2.2,7.81-5.35,10.31-9.34,3.86-6.14,8.13-12,11.88-18.21,2.82-4.69,5.07-9.64,7.08-14.71.42-1.27.78-2.56,1.01-3.89.63-3.6,1.09-7.2,1.3-10.86.21-3.79.69-7.56.8-11.35,0-.06,0-.12,0-.18.01-.53.02-1.06.01-1.59,0-.03,0-.05,0-.08,0,0,0,0,0,0,0-.07,0-.14,0-.21,0-.18,0-.35,0-.53.02-.2.08-.4.24-.57v-9.33Z" fill="#ffd561"/>
      <path d="M83.56,45.95c-2.78.24-5.13-.54-7.5-1.22-1.14-.32-1.68-1.27-2.03-2.23-.86-2.41-1.21-4.95-1.53-7.47-.3-2.29,1.38-4.13,4.24-4.51,2.73-.36,5.51-.4,8.24.15,3.01.6,6.13,4.08,5.75,7.28-.11.95-.04,1.92-.14,2.88-.35,3.18-2.09,4.86-5.28,5.12-.66.05-1.34,0-1.74,0Z" fill="#fff"/>
      <path d="M51.63,50.26c-1.57-.02-3.17.12-4.68-.56-2.01-.9-2.79-2.68-2.85-4.64-.07-2.2.28-4.41.45-6.62.03-.36.17-.6.48-.81,3.01-2.06,6.37-2.22,9.83-1.89,2.59.25,4.88,1.1,6.53,3.23.23.3.49.58.51.99.15,2.67,0,5.09-2.03,7.32-2.33,2.57-5.06,3.19-8.24,2.98Z" fill="#fff"/>
      <path d="M52.12,79.12c.69-.83,1.48-1.57,1.7-2.72.08-.4.45-.84.81-1.09,2.03-1.39,3.69-3.25,5.82-4.52,1.78-1.06,3.7-1.48,5.74-1.49.96,0,1.93.05,2.88-.01,3.03-.21,5.3,1.18,7.15,3.4.56.67,1,.95,1.63.12.17-.22.45-.37.71-.5,2.06-1.1,4.23-2.02,6.4-2.84,2.46-.93,5.17-.66,7.81-.57,1.67.06,3.14.75,4.7,1.15-1.65,3.32-4.33,5.68-7.22,7.85-3.91,2.95-8.29,4.98-12.9,6.54-.89.3-1.88.33-2.83.38-1.08.06-2.18-.07-3.26.03-3.91.36-7.61-.67-11.32-1.6-.52-.13-1.07-.28-1.52-.57-2.03-1.31-4.16-2.46-6.3-3.57Z" fill="#e06c4f"/>
      <path d="M78.2,36.68c.08-1,.18-2,.22-3,.03-.87.5-1.17,1.29-1.16.29,0,.59.03.88,0,3.67-.35,4.69,1.22,5.45,4.44.36,1.52.12,3.15-.27,4.71-.19.75-.66,1.13-1.4,1.2-1.55.15-3.08.11-4.61-.21-.63-.13-.97-.5-1.16-1.14-.47-1.6-.45-3.21-.39-4.84Z" fill="#292929"/>
      <path d="M56.58,42.69c-.07.87-.12,1.62-.19,2.37-.16,1.88-.99,2.65-2.93,2.67-.96.01-1.92,0-2.88-.07-2.02-.16-2.96-1-3.22-2.99-.23-1.79-.01-3.59.31-5.36.18-1,.9-1.6,1.93-1.71,1.54-.16,3.1-.13,4.62.15,1.21.22,1.99,1.06,2.17,2.3.13.91.13,1.83.18,2.63Z" fill="#292929"/>
      <path d="M105.4,54.72c.01-1.09-.41-1.42-1.47-1.49-3.99-.27-7.93.27-11.88.6-7.27.59-14.52,1.39-21.74,2.47-3.33.5-6.65,1.1-9.9,2-.81.16-1.63.3-2.43.48-3.07.7-6.21,1.11-9.17,2.23,0,0,0,0,0,0-.93.09-1.75.52-2.63.76-3.43.92-6.44,2.91-9.85,3.9-.41.12-.37.41-.28.8,1.14,4.93,3.99,8.64,8.13,11.43,2.47,1.67,5.38,2.52,7.81,4.23,3.52,2.47,7.68,2.95,11.69,3.68,3.86.7,7.84.22,11.77.21,2,0,4.05-.09,5.94-.74,6.26-2.13,12.08-5.11,16.94-9.7,2.62-2.48,4.44-5.5,5.78-8.85,1.56-3.9,1.24-7.96,1.3-12.01ZM97.2,69.67c-.49.97-1.09,1.87-1.77,2.72-2.81,3.46-6.31,6.03-10.21,8.15-4.54,2.47-9.19,4.42-14.52,3.87-.62-.06-1.25-.02-1.88,0-3.49.06-6.71-1.21-10.01-2.05-.36-.09-.68-.31-.99-.53-1.71-1.22-3.59-2.12-5.49-2.99-.36-.21-.75-.37-1.12-.56-4.19-2.1-7.25-5.26-9.07-9.59-.73-1.73-.51-2.05,1.21-2.86,6.17-2.9,12.84-4.26,19.42-5.88,6.9-1.69,14-2.71,21.07-3.46,4.9-.52,9.8-.94,14.7-1.42l-1.33,14.61Z" fill="#292929"/>
    </g>
  </g>
</svg>