<svg width="20" height="20" viewBox="0 0 20 20" fill="none" xmlns="http://www.w3.org/2000/svg">
<path d="M19.9487 17.499C20.0111 17.7007 20.0158 17.9149 19.9624 18.119C19.9089 18.323 19.7993 18.5093 19.6451 18.6582C19.491 18.807 19.298 18.9128 19.0866 18.9644C18.8752 19.016 18.6533 19.0114 18.4444 18.9512L16.2458 18.3268C15.4173 18.7217 14.5135 18.9478 13.5906 18.9911C12.6677 19.0343 11.7455 18.8939 10.8813 18.5784C10.017 18.2629 9.22929 17.7791 8.567 17.1571C7.90472 16.5352 7.38207 15.7883 7.03155 14.9631C6.23756 14.8844 5.46472 14.6684 4.75002 14.3253L2.55485 14.9497C2.34593 15.0099 2.12403 15.0145 1.91265 14.9629C1.70127 14.9113 1.50828 14.8055 1.3541 14.6567C1.19993 14.5078 1.09032 14.3215 1.03688 14.1175C0.983438 13.9134 0.988154 13.6992 1.05053 13.4975L1.69734 11.3751C1.29809 10.5924 1.06608 9.74017 1.01511 8.86915C0.964142 7.99812 1.09526 7.1261 1.40067 6.30501C1.70607 5.48392 2.17951 4.73055 2.79279 4.08977C3.40607 3.44899 4.14665 2.9339 4.97044 2.57516C5.79422 2.21643 6.68437 2.02139 7.58786 2.00166C8.49135 1.98194 9.38971 2.13792 10.2295 2.46033C11.0692 2.78275 11.8332 3.26499 12.4758 3.87835C13.1185 4.49171 13.6267 5.22364 13.9703 6.03056C15.0501 6.14044 16.0864 6.5007 16.9909 7.08064C17.8954 7.66059 18.6413 8.44303 19.1649 9.36129C19.6886 10.2795 19.9745 11.3064 19.9984 12.3544C20.0222 13.4023 19.7833 14.4403 19.3019 15.3799L19.9487 17.499ZM6.68786 13.9035C6.47697 12.9886 6.47368 12.0405 6.6782 11.1243C6.88273 10.208 7.29022 9.34535 7.87272 8.5955C8.45521 7.84565 9.19889 7.22636 10.0527 6.78016C10.9065 6.33396 11.8503 6.07142 12.8191 6.01056C12.4736 5.36957 12.0007 4.80057 11.4273 4.33604C10.854 3.8715 10.1915 3.52053 9.47764 3.30316C8.7638 3.08579 8.01259 3.00628 7.26692 3.06916C6.52124 3.13205 5.7957 3.33611 5.13172 3.66968C4.46774 4.00325 3.87831 4.45981 3.39711 5.01328C2.9159 5.56676 2.55233 6.20631 2.32716 6.89542C2.10199 7.58454 2.01963 8.30971 2.08477 9.02956C2.14992 9.7494 2.3613 10.4498 2.70684 11.0908C2.77081 11.2068 2.78537 11.3422 2.74743 11.4684L2.0419 13.7826C2.03303 13.8114 2.03235 13.8419 2.03995 13.871C2.04754 13.9001 2.06313 13.9266 2.08505 13.9479C2.10698 13.9691 2.13443 13.9843 2.16453 13.9917C2.19463 13.9992 2.22625 13.9986 2.25606 13.9902L4.65417 13.3091C4.78488 13.2726 4.9252 13.2866 5.04536 13.3483C5.55975 13.6144 6.11386 13.8017 6.68786 13.9035ZM18.2898 15.0923C18.9343 13.9288 19.1242 12.5804 18.8249 11.293C18.5256 10.0056 17.757 8.86488 16.6593 8.07881C15.5616 7.29274 14.2078 6.91366 12.8447 7.01067C11.4816 7.10768 10.2 7.67432 9.23357 8.60729C8.26711 9.54027 7.68014 10.7774 7.57965 12.0933C7.47916 13.4092 7.87184 14.7161 8.68612 15.7758C9.5004 16.8355 10.682 17.5774 12.0156 17.8664C13.3492 18.1553 14.746 17.972 15.9513 17.3498C16.0714 17.2881 16.2118 17.2741 16.3425 17.3106L18.7406 17.9917C18.7703 18.0001 18.8018 18.0006 18.8318 17.9931C18.8618 17.9857 18.8892 17.9707 18.9111 17.9495C18.933 17.9284 18.9486 17.902 18.9562 17.873C18.9639 17.8441 18.9634 17.8136 18.9547 17.785L18.2492 15.4699C18.2113 15.3437 18.2258 15.2083 18.2898 15.0923Z" fill="#B79A8A"/>
<path d="M15.9388 11.2759C15.7936 11.2759 15.6516 11.3174 15.5309 11.3953C15.4101 11.4732 15.316 11.5839 15.2605 11.7134C15.2049 11.8429 15.1904 11.9854 15.2187 12.1229C15.247 12.2604 15.3169 12.3867 15.4196 12.4858C15.5223 12.5849 15.6531 12.6524 15.7955 12.6798C15.938 12.7071 16.0856 12.6931 16.2197 12.6394C16.3539 12.5858 16.4686 12.495 16.5492 12.3784C16.6299 12.2618 16.673 12.1248 16.673 11.9846C16.673 11.7967 16.5956 11.6164 16.4579 11.4835C16.3202 11.3505 16.1335 11.2759 15.9388 11.2759ZM11.9289 11.9846C11.9289 11.8444 11.8859 11.7074 11.8052 11.5909C11.7245 11.4743 11.6099 11.3835 11.4757 11.3298C11.3415 11.2762 11.1939 11.2621 11.0515 11.2895C10.9091 11.3168 10.7783 11.3843 10.6756 11.4835C10.5729 11.5826 10.503 11.7089 10.4746 11.8464C10.4463 11.9838 10.4609 12.1264 10.5164 12.2559C10.572 12.3854 10.6661 12.4961 10.7868 12.5739C10.9076 12.6518 11.0495 12.6934 11.1947 12.6934C11.3895 12.6934 11.5762 12.6187 11.7139 12.4858C11.8516 12.3529 11.9289 12.1726 11.9289 11.9846ZM12.5502 11.3849C12.6954 11.3849 12.8373 11.3433 12.9581 11.2655C13.0788 11.1876 13.1729 11.0769 13.2285 10.9474C13.2841 10.8179 13.2986 10.6754 13.2703 10.5379C13.2419 10.4004 13.172 10.2741 13.0693 10.175C12.9666 10.0758 12.8358 10.0083 12.6934 9.981C12.551 9.95365 12.4034 9.96769 12.2692 10.0213C12.1351 10.075 12.0204 10.1658 11.9397 10.2824C11.859 10.3989 11.816 10.536 11.816 10.6761C11.816 10.8641 11.8933 11.0444 12.031 11.1773C12.1687 11.3102 12.3555 11.3849 12.5502 11.3849ZM14.5833 11.3849C14.7285 11.3849 14.8705 11.3433 14.9912 11.2655C15.112 11.1876 15.2061 11.0769 15.2616 10.9474C15.3172 10.8179 15.3318 10.6754 15.3034 10.5379C15.2751 10.4004 15.2052 10.2741 15.1025 10.175C14.9998 10.0758 14.869 10.0083 14.7266 9.981C14.5842 9.95365 14.4365 9.96769 14.3024 10.0213C14.1682 10.075 14.0535 10.1658 13.9729 10.2824C13.8922 10.3989 13.8491 10.536 13.8491 10.6761C13.8491 10.8641 13.9265 11.0444 14.0642 11.1773C14.2019 11.3102 14.3886 11.3849 14.5833 11.3849ZM15.2088 13.1462C15.0876 13.0816 14.9808 12.9946 14.8945 12.8901C14.8081 12.7857 14.744 12.6659 14.7056 12.5375C14.6339 12.2994 14.4841 12.0903 14.2788 11.9415C14.0734 11.7926 13.8235 11.7122 13.5668 11.7122C13.31 11.7122 13.0601 11.7926 12.8547 11.9415C12.6494 12.0903 12.4996 12.2994 12.4279 12.5375C12.3507 12.7963 12.1702 13.015 11.9261 13.1454C11.7161 13.2551 11.55 13.4293 11.4541 13.6404C11.3582 13.8515 11.338 14.0874 11.3966 14.3109C11.4553 14.5343 11.5895 14.7325 11.778 14.874C11.9664 15.0156 12.1984 15.0924 12.4372 15.0923C12.5804 15.0924 12.7222 15.0646 12.854 15.0105C13.3099 14.8291 13.8216 14.8291 14.2775 15.0105C14.4099 15.0648 14.5524 15.0926 14.6963 15.0923C14.9349 15.0923 15.1667 15.0156 15.3551 14.8742C15.5435 14.7328 15.6777 14.5349 15.7365 14.3116C15.7953 14.0884 15.7753 13.8526 15.6798 13.6415C15.5842 13.4305 15.4185 13.2562 15.2088 13.1462Z" fill="#B79A8A"/>
</svg>
