<svg width="20" height="20" viewBox="0 0 20 20" fill="none" xmlns="http://www.w3.org/2000/svg">
<path d="M7.58817 2.00146C8.49155 1.98178 9.39012 2.13807 10.2298 2.46045C11.0694 2.78285 11.8333 3.26514 12.4759 3.87842C13.1185 4.49175 13.6265 5.22388 13.97 6.03076C15.0497 6.14062 16.0861 6.50078 16.9905 7.08057C17.895 7.66051 18.6417 8.44356 19.1653 9.36182C19.6888 10.28 19.9745 11.3072 19.9983 12.355C20.0221 13.4028 19.7833 14.4409 19.302 15.3804L19.9485 17.4995C20.0108 17.7011 20.0156 17.9156 19.9622 18.1196C19.9087 18.3235 19.7989 18.51 19.6448 18.6587C19.4907 18.8074 19.2974 18.9128 19.0862 18.9644C18.875 19.0158 18.6534 19.0118 18.4446 18.9517L16.2454 18.3267C15.4171 18.7214 14.5138 18.9484 13.5911 18.9917C12.6682 19.035 11.7454 18.8941 10.8811 18.5786C10.017 18.2631 9.22893 17.7796 8.56668 17.1577C7.90442 16.5358 7.38204 15.7886 7.03152 14.9634C6.23763 14.8847 5.46489 14.6687 4.75027 14.3257L2.55496 14.9497C2.34604 15.0099 2.12377 15.015 1.91238 14.9634C1.70108 14.9118 1.50792 14.8055 1.35379 14.6567C1.19974 14.5079 1.08982 14.3216 1.03641 14.1177C0.982997 13.9137 0.987716 13.6992 1.05008 13.4976L1.69754 11.3755C1.29834 10.5929 1.06592 9.74056 1.01492 8.86963C0.963956 7.9986 1.09526 7.12627 1.40067 6.30518C1.70607 5.4841 2.17997 4.73111 2.79324 4.09033C3.4064 3.44969 4.14643 2.9344 4.97 2.57568C5.79379 2.21695 6.68467 2.02119 7.58817 2.00146ZM13.5667 11.7124C13.3099 11.7124 13.0601 11.7931 12.8548 11.9419C12.6495 12.0907 12.4997 12.2996 12.428 12.5376C12.3509 12.7964 12.1701 13.0146 11.9261 13.145C11.7162 13.2547 11.5503 13.4292 11.4544 13.6401C11.3585 13.8512 11.3381 14.0876 11.3968 14.311C11.4554 14.5344 11.5892 14.733 11.7776 14.8745C11.966 15.016 12.1982 15.0923 12.4368 15.0923C12.58 15.0924 12.722 15.0644 12.8538 15.0103C13.3097 14.8289 13.8217 14.8289 14.2776 15.0103C14.4101 15.0646 14.5527 15.0926 14.6966 15.0923C14.935 15.0923 15.1665 15.0157 15.3548 14.8745C15.5431 14.7332 15.6778 14.5352 15.7366 14.312C15.7954 14.0889 15.7754 13.853 15.68 13.6421C15.5844 13.4311 15.4188 13.256 15.2093 13.146C15.0881 13.0814 14.9811 12.9945 14.8948 12.8901C14.8085 12.7857 14.7437 12.666 14.7054 12.5376C14.6337 12.2996 14.4839 12.0907 14.2786 11.9419C14.0732 11.7931 13.8235 11.7124 13.5667 11.7124ZM9.47781 3.30322C8.76397 3.08585 8.01255 3.00694 7.26688 3.06982C6.52142 3.13271 5.79594 3.33602 5.13211 3.66943C4.46813 4.00301 3.87797 4.45971 3.39676 5.01318C2.91555 5.56666 2.55259 6.20688 2.32742 6.896C2.10232 7.58503 2.0201 8.31003 2.08524 9.02979C2.15039 9.7496 2.36177 10.4503 2.70731 11.0913C2.77101 11.2071 2.78512 11.3423 2.74734 11.4683L2.04227 13.7827C2.0334 13.8115 2.03272 13.8425 2.04031 13.8716C2.04794 13.9005 2.06346 13.9266 2.08524 13.9478C2.1071 13.9689 2.13433 13.9842 2.16434 13.9917C2.19443 13.9991 2.22633 13.9992 2.25613 13.9907L4.65457 13.3091C4.78506 13.2727 4.92523 13.2867 5.0452 13.3481C5.55956 13.6143 6.1138 13.802 6.68777 13.9038C6.4769 12.9889 6.47351 12.0407 6.67801 11.1245C6.88249 10.2085 7.29006 9.34593 7.87234 8.59619C8.45484 7.84634 9.19918 7.22696 10.053 6.78076C10.9068 6.33458 11.8508 6.07209 12.8196 6.01123C12.4741 5.37025 12.0004 4.80096 11.427 4.33643C10.8537 3.87195 10.1916 3.52058 9.47781 3.30322ZM11.0511 11.2896C10.9088 11.3169 10.7786 11.3849 10.6761 11.4839C10.5735 11.5829 10.5033 11.7088 10.4749 11.8462C10.4466 11.9837 10.4613 12.1268 10.5169 12.2563C10.5724 12.3855 10.666 12.496 10.7864 12.5737C10.9071 12.6516 11.0494 12.6938 11.1946 12.6938C11.3893 12.6938 11.5765 12.6188 11.7141 12.4858C11.8517 12.353 11.929 12.1727 11.929 11.9849C11.929 11.8447 11.8856 11.7078 11.805 11.5913C11.7243 11.4748 11.61 11.3832 11.4759 11.3296C11.3417 11.2759 11.1935 11.2622 11.0511 11.2896ZM15.9388 11.2759C15.7936 11.2759 15.6513 11.3171 15.5305 11.395C15.4098 11.4729 15.3156 11.5839 15.26 11.7134C15.2045 11.8428 15.1908 11.9852 15.219 12.1226C15.2473 12.2599 15.3167 12.3868 15.4192 12.4858C15.5218 12.5849 15.6529 12.6528 15.7952 12.6802C15.9376 12.7075 16.0858 12.6928 16.22 12.6392C16.354 12.5855 16.4685 12.4949 16.5491 12.3784C16.6298 12.2619 16.6731 12.125 16.6731 11.9849C16.6731 11.797 16.5958 11.6168 16.4583 11.4839C16.3206 11.351 16.1335 11.2759 15.9388 11.2759ZM12.6936 9.98096C12.5512 9.95361 12.403 9.96735 12.2688 10.021C12.1348 10.0747 12.0204 10.1662 11.9397 10.2827C11.8591 10.3992 11.8157 10.5362 11.8157 10.6763C11.8157 10.8641 11.8931 11.0444 12.0305 11.1772C12.1682 11.3101 12.3554 11.3852 12.5501 11.3853C12.6953 11.3853 12.8375 11.343 12.9583 11.2651C13.0788 11.1873 13.1733 11.0771 13.2288 10.9478C13.2844 10.8182 13.2981 10.6751 13.2698 10.5376C13.2414 10.4004 13.172 10.2743 13.0696 10.1753C12.967 10.0762 12.836 10.0083 12.6936 9.98096ZM14.7268 9.98096C14.5844 9.95361 14.4362 9.96735 14.302 10.021C14.1679 10.0746 14.0536 10.1662 13.9729 10.2827C13.8923 10.3992 13.8489 10.5361 13.8489 10.6763C13.8489 10.8641 13.9263 11.0444 14.0638 11.1772C14.2014 11.3102 14.3886 11.3852 14.5833 11.3853C14.7285 11.3853 14.8707 11.343 14.9915 11.2651C15.112 11.1873 15.2065 11.0771 15.262 10.9478C15.3176 10.8182 15.3313 10.6751 15.303 10.5376C15.2746 10.4004 15.2052 10.2743 15.1028 10.1753C15.0002 10.0762 14.8692 10.0083 14.7268 9.98096Z" fill="#FF8F7A"/>
</svg>
