<svg width="40" height="40" viewBox="0 0 40 40" fill="none" xmlns="http://www.w3.org/2000/svg">
<path d="M39.9448 23.8551C39.9162 24.4343 39.7604 25.2393 39.5812 26.0315C39.3475 27.0625 38.7787 27.9637 38.184 28.8363C38.1424 28.8986 38.0879 28.9531 38.0541 29.0181C37.462 30.1556 36.6206 31.1217 35.87 32.1501C35.4545 32.7215 34.8831 33.1474 34.3923 33.6486C33.2911 34.768 32.029 35.7055 30.8239 36.7054C30.1019 37.3027 29.2968 37.7572 28.4086 38.1182C27.4088 38.5259 26.3933 38.7856 25.3389 38.983C24.6039 39.1207 23.8586 39.1856 23.134 39.3882C22.7652 39.492 22.438 39.7154 22.0354 39.7258C21.0226 39.7491 20.0201 39.9387 19.0021 39.905C18.6826 39.8946 18.3606 39.918 18.0438 39.9595C16.8985 40.1101 15.7869 39.8167 14.6728 39.666C13.8807 39.5596 13.1717 39.1336 12.5094 38.6792C11.7666 38.1727 10.9875 37.7338 10.1539 37.391C9.09427 36.9547 8.21386 36.2353 7.34125 35.5237C5.92325 34.368 4.67666 33.0357 3.51837 31.6307C2.28996 30.1426 1.30567 28.5142 0.897932 26.595C0.71354 25.725 0.388907 24.8887 0.274636 24.0005C0.214904 23.5461 0.238277 23.089 0.246068 22.6371C0.269442 21.3697 -0.0266234 20.1127 0.00194428 18.8272C0.0590797 16.2847 -0.262956 13.6409 1.16283 11.3866C1.52123 10.8204 1.82768 10.2257 2.13933 9.63098C2.53928 8.86485 3.03012 8.16104 3.70536 7.59488C4.48188 6.94562 5.20646 6.23142 6.12323 5.76395C6.2349 5.70682 6.33878 5.61852 6.41929 5.52242C7.32047 4.46802 8.42942 3.64734 9.68121 3.09936C10.9745 2.5332 12.1614 1.76707 13.4729 1.24766C14.8675 0.69448 16.2778 0.162082 17.7866 0.102349C18.9683 0.0556023 20.1604 -0.0950275 21.3394 0.0893642C22.077 0.203635 22.799 0.401012 23.5262 0.577612C24.6065 0.839916 25.6895 1.10222 26.6764 1.62683C28.1048 2.38777 29.5877 3.04742 30.946 3.94601C31.6212 4.3927 32.2835 4.85498 32.9223 5.35102C33.2652 5.61592 33.5275 5.95354 33.8027 6.27557C34.4157 6.99756 35.0208 7.72733 35.6181 8.4623C35.9817 8.909 36.1401 9.48295 36.5063 9.93224C36.753 10.2361 36.953 10.5815 37.2101 10.8802C37.8412 11.6125 38.0048 12.5371 38.2905 13.4097C38.4749 13.9759 38.7034 14.5213 38.9423 15.0666C39.2202 15.7003 39.4046 16.3496 39.3994 17.0638C39.3968 17.7676 39.4436 18.4766 39.6306 19.17C40.0279 20.6296 40.0539 22.1203 39.9448 23.8551Z" fill="#FFD561"/>
<path d="M19.4124 20.0918C20.4279 19.7049 21.4823 19.414 22.5523 19.2218C22.6562 19.6373 22.6951 20.0659 22.6718 20.4918C22.6666 20.5853 22.6536 20.6866 22.5912 20.7541C22.5367 20.8138 22.4536 20.8346 22.3757 20.8554C20.498 21.3228 18.571 21.5851 16.6362 21.6293C16.5842 21.6293 16.5245 21.6293 16.483 21.6007C16.405 21.5462 16.4102 21.4319 16.4258 21.3384C16.5453 20.6398 16.766 18.9387 17.4543 18.5076C18.397 17.9181 19.4384 19.2452 19.4124 20.0918Z" fill="#D6674C"/>
<path d="M10.1071 8.87037C10.7902 8.91971 10.7876 8.9327 10.5149 9.56119C10.0968 10.5247 9.53319 11.4025 8.91769 12.2492C8.68135 12.5738 8.47099 12.9166 8.27102 13.262C8.18272 13.4126 8.08663 13.4776 7.91782 13.4594C7.71784 13.4386 7.51787 13.4334 7.31789 13.41C6.9621 13.3685 6.91535 13.275 7.11532 12.9685C7.47891 12.4128 7.83471 11.8466 8.22946 11.3116C8.75407 10.6 9.11247 9.80531 9.42671 8.98724C9.47606 8.86258 9.54877 8.82622 9.66304 8.83401C9.81108 8.8418 9.95651 8.85738 10.1045 8.86777L10.1071 8.87037Z" fill="#292929"/>
<path d="M31.5199 11.1344C31.4836 11.1681 31.442 11.2201 31.3901 11.2512C31.1252 11.4071 30.8317 11.485 30.5357 11.5551C30.4318 11.5785 30.3513 11.5239 30.2785 11.4616C29.7591 11.0123 29.167 10.6643 28.6086 10.2695C28.071 9.88777 27.6062 9.40212 27.1179 8.95283C26.9621 8.80999 26.8245 8.64897 26.6868 8.49055C26.4998 8.27759 26.5206 8.15034 26.7595 8.0101C27.0088 7.86466 27.2841 7.79714 27.5594 7.72961C27.6321 7.71143 27.6997 7.70364 27.7516 7.78675C28.3204 8.69572 29.1462 9.3372 30.0059 9.93972C30.4707 10.2669 30.9616 10.5604 31.3849 10.9448C31.4368 10.9915 31.5096 11.0279 31.5174 11.1318L31.5199 11.1344Z" fill="#292929"/>
<path d="M23.7079 20.4715C23.7002 20.23 23.7417 19.9859 23.7599 19.7444C23.8014 19.1756 23.8482 18.6069 23.7261 18.0407C23.5339 17.1603 22.9989 16.5084 22.2276 16.1422C21.6329 15.8592 20.9265 15.8514 20.2694 16.015C18.7398 16.3968 17.6256 17.3732 16.6855 18.5861C16.057 19.3938 15.9687 20.3495 15.9297 21.3182C15.9219 21.4974 16.044 21.5156 16.1765 21.5363C16.5634 21.6013 16.9504 21.5883 17.3399 21.5649C18.7476 21.4818 20.163 21.5805 21.5602 21.3156C22.1393 21.2065 22.7289 21.1572 23.295 20.9884C23.5521 20.913 23.7157 20.7754 23.7053 20.4715H23.7079ZM22.1809 20.7364C21.6407 20.8897 21.0797 20.9156 20.5369 21.0377C19.5474 21.2585 18.5398 21.1026 17.5477 21.2429C17.2854 21.2818 17.2101 21.1883 17.2101 20.8949C17.2101 19.2509 18.2281 18.2303 19.3579 17.2642C19.8487 16.8434 20.4253 16.5941 21.02 16.3682C21.1836 16.3059 21.3031 16.337 21.4511 16.4409C22.3159 17.0538 22.6042 17.9108 22.5523 18.9237C22.5419 19.1237 22.5211 19.3236 22.5055 19.5236C22.5107 19.5236 22.5159 19.5236 22.5211 19.5236C22.4977 19.8197 22.464 20.1132 22.4536 20.4092C22.4484 20.6014 22.3601 20.6845 22.1835 20.7364H22.1809Z" fill="#292929"/>
<path d="M14.439 16.95C14.4832 16.8201 14.517 16.6903 14.3845 16.6072C14.1508 16.4591 13.9378 16.2488 13.6651 16.1968C12.9301 16.0514 12.2887 15.6748 11.5927 15.4385C10.8317 15.1788 10.0682 14.932 9.24491 14.9996C8.63201 15.0489 8.00871 15.1086 7.52825 15.532C6.46346 16.4747 5.76225 17.5992 5.84535 19.0873C5.8895 19.8743 5.9804 20.6326 6.6037 21.2195C6.72316 21.3312 6.80367 21.4948 6.88158 21.6455C7.01403 21.9052 6.99326 22.1649 6.81146 22.3934C6.36217 22.9622 5.8895 23.5076 5.32075 23.9672C4.62993 24.5256 4.04559 25.1619 3.82743 26.0579C3.72615 26.476 3.77549 26.8266 4.14168 27.1097C4.40139 27.3123 4.62993 27.5538 4.88184 27.7693C5.2766 28.1044 5.29218 28.4498 4.89223 28.8004C4.58837 29.0679 4.27932 29.3354 3.94171 29.5587C3.48202 29.8626 3.08208 30.2132 2.73407 30.6053C2.98079 30.9559 3.24309 31.2962 3.51838 31.6312C4.67667 33.0362 5.92327 34.3685 7.34126 35.5242C8.21388 36.2358 9.09428 36.9526 10.1539 37.3915C10.3175 37.459 10.4785 37.5343 10.6395 37.6096C11.12 37.4564 11.3667 37.1292 11.4083 36.6461C11.468 35.9735 11.5693 35.3034 11.4472 34.6178C11.2498 33.4933 11.1304 32.3532 10.6266 31.3013C10.5305 31.104 10.5694 30.9144 10.7071 30.7352C10.9278 30.4469 11.1382 30.1534 11.3407 29.8548C11.8238 29.1302 12.4211 28.4757 12.7458 27.6551C13.1379 26.6656 13.3535 25.6969 12.4471 24.8347C12.1796 24.5801 12.1796 24.2243 12.177 23.8815C12.1692 23.1777 12.5276 22.6038 12.8341 22.009C13.1197 21.4533 13.4366 20.9079 13.4937 20.2638C13.5119 20.0612 13.5041 19.8665 13.4418 19.6665C13.2548 19.0744 13.5768 18.5991 13.8287 18.1083C14.0261 17.7213 14.291 17.3681 14.4364 16.9526L14.439 16.95Z" fill="#8CBBE8"/>
<path d="M37.1608 28.997C37.1686 28.8567 37.1608 28.7191 37.1114 28.5996C36.8647 28.0127 36.6076 27.4387 36.2674 26.9427C35.9142 26.4285 35.5402 25.9454 35.1948 25.4234C34.9559 25.0624 34.8909 24.6287 35.0312 24.1249C35.1818 23.5821 35.3065 23.0237 35.4623 22.4835C35.574 22.0992 35.6623 21.707 35.6519 21.3045C35.6337 20.4163 35.5506 19.5644 34.8909 19.1489C34.7507 19.0606 34.6131 18.9775 34.4624 18.9333C34.0599 18.8139 33.6573 18.6996 33.2522 18.5879C32.8471 18.4763 32.8419 18.4763 32.7873 17.9075C32.7094 17.0842 32.5068 16.3415 32.0472 15.8169C31.5485 15.2481 31.0473 14.669 30.3669 14.5339C29.7254 14.4067 29.0813 14.2872 28.4294 14.243C27.7594 14.1989 27.0764 14.2171 26.4739 13.7626C26.3284 13.7522 26.1804 13.7392 26.035 13.7288C25.6246 13.6925 25.4636 14.1002 25.3156 14.5365C25.2636 14.6871 25.248 14.8482 25.2351 15.0066C25.1987 15.4429 25.1597 15.8766 25.1312 16.3129C25.087 17.0453 25.2273 17.6919 25.5805 18.2088C25.8402 18.5905 26.0531 19.019 26.2739 19.4424C26.4375 19.7592 26.5933 20.0942 26.8141 20.3332C27.1517 20.6993 27.3153 21.185 27.3646 21.7719C27.4504 22.8004 27.4893 23.821 27.0011 24.7612C26.8738 25.0079 26.7985 25.2936 26.7517 25.5948C26.6479 26.2623 26.5518 26.9323 26.5076 27.6075C26.4115 29.1138 26.7673 30.3267 27.6581 31.1162C28.1256 31.5291 28.4762 32.0615 28.7489 32.7134C29.0424 33.4172 29.0346 34.2041 28.7852 34.9235C28.4372 35.9285 28.2684 37.0141 27.9048 38.0088C27.8633 38.1231 27.8477 38.2243 27.8477 38.3204C28.0347 38.2529 28.2243 38.188 28.4113 38.1127C29.2995 37.7491 30.1071 37.2972 30.8265 36.6999C32.0316 35.7 33.2937 34.7625 34.3949 33.6431C34.8857 33.1419 35.4571 32.7186 35.8726 32.1446C36.0726 31.8719 36.2778 31.6018 36.4829 31.3343C36.5167 31.2642 36.5479 31.1915 36.5868 31.1214C36.9452 30.4929 37.1114 29.7683 37.1608 28.9944V28.997Z" fill="#8CBBE8"/>
<path d="M11.5329 13.7426C12.0238 13.1375 12.8367 12.6674 13.5561 12.7713C13.743 12.7998 13.9352 12.8128 14.1248 12.8206C15.0935 12.857 15.374 13.5218 15.3974 14.3036C15.4259 15.1762 14.9922 15.8618 14.465 16.4981C14.2962 16.7006 14.0443 16.7863 13.7872 16.8045C13.2158 16.8461 12.6497 16.7889 12.0887 16.6721C11.1356 16.4721 10.8811 15.0619 11.1901 14.301C11.268 14.1088 11.3849 13.9192 11.5303 13.74L11.5329 13.7426Z" fill="#FEFEFE"/>
<path d="M27.8866 11.8543C26.6245 11.4206 24.0274 11.5167 24.1469 13.3528C24.1676 13.6748 24.3053 13.9787 24.4429 14.2722C24.5131 14.4202 24.5806 14.5708 24.6767 14.7059C25.0039 15.1708 25.5856 15.4071 26.1518 15.5551C26.4738 15.6382 26.8141 15.7006 27.1439 15.6538C28.0918 15.5162 28.8112 14.7604 29.0034 13.9216C29.1826 13.1424 28.7307 12.1426 27.8866 11.8543Z" fill="#FDFDFD"/>
<path d="M11.6653 13.8509C12.0809 13.6977 12.5042 13.5653 12.9093 13.3835C13.4028 13.1627 13.9014 13.2328 14.4026 13.2978C14.5377 13.3159 14.6442 13.3861 14.6286 13.5497C14.6078 13.7808 14.626 14.0197 14.5221 14.2353C14.265 14.7781 14.078 15.3572 13.7456 15.8637C13.7118 15.9156 13.6911 15.9805 13.6547 16.0299C13.53 16.1961 13.5794 16.4999 13.343 16.5493C13.0132 16.6194 12.6704 16.5415 12.3354 16.4921C12.2263 16.4766 12.1977 16.3831 12.2549 16.274C12.3666 16.0584 12.4549 15.8299 12.5769 15.6221C12.886 15.0923 13.0807 14.5132 13.3301 13.9392C12.6289 14.1366 11.9978 14.5547 11.242 14.4483C11.0524 14.347 10.8005 14.4379 10.6083 14.2327C10.9797 14.1106 11.3459 14.0457 11.6679 13.8535L11.6653 13.8509Z" fill="#292929"/>
<path d="M24.2975 12.9449C24.9909 12.6722 25.6765 12.3683 26.3829 12.1346C26.7959 11.997 27.2374 12.119 27.6607 12.1969C27.7152 12.2073 27.7853 12.2489 27.7853 12.3242C27.7853 12.3865 27.7204 12.4125 27.6737 12.4125C27.1361 12.4125 26.7101 12.7527 26.2193 12.893C25.9986 12.9579 25.7856 13.0514 25.5181 13.1527C26.1855 13.7915 26.6218 14.6122 27.3594 15.168C27.4659 15.3004 27.5023 15.4251 27.2737 15.4225C26.8114 15.4147 26.3258 15.4718 25.983 15.0459C25.8531 15.0251 25.7259 14.9732 25.6609 14.8641C25.4506 14.5187 25.1026 14.2928 24.8974 13.9448C24.7805 13.7474 24.6065 13.5864 24.4403 13.4228C24.3572 13.3396 24.2377 13.2643 24.2741 13.1111C24.2819 13.0566 24.2871 12.9994 24.2949 12.9449H24.2975Z" fill="#292A2A"/>
</svg>
