<svg width="40" height="40" viewBox="0 0 40 40" fill="none" xmlns="http://www.w3.org/2000/svg">
<path d="M39.9448 23.8551C39.9162 24.4343 39.7604 25.2393 39.5812 26.0315C39.3475 27.0625 38.7787 27.9637 38.184 28.8363C38.1424 28.8986 38.0879 28.9531 38.0541 29.0181C37.462 30.1556 36.6206 31.1217 35.87 32.1501C35.4545 32.7215 34.8831 33.1474 34.3923 33.6486C33.2911 34.768 32.029 35.7055 30.8239 36.7054C30.1019 37.3027 29.2968 37.7572 28.4086 38.1182C27.4088 38.5259 26.3933 38.7856 25.3389 38.983C24.6039 39.1207 23.8586 39.1856 23.134 39.3882C22.7652 39.492 22.438 39.7154 22.0354 39.7258C21.0226 39.7491 20.0201 39.9387 19.0021 39.905C18.6826 39.8946 18.3606 39.918 18.0438 39.9595C16.8985 40.1101 15.7869 39.8167 14.6728 39.666C13.8807 39.5596 13.1717 39.1336 12.5094 38.6792C11.7666 38.1727 10.9875 37.7338 10.1539 37.391C9.09427 36.9547 8.21386 36.2353 7.34125 35.5237C5.92325 34.368 4.67666 33.0357 3.51837 31.6307C2.28996 30.1426 1.30567 28.5142 0.897932 26.595C0.71354 25.725 0.388907 24.8887 0.274636 24.0005C0.214904 23.5461 0.238277 23.089 0.246068 22.6371C0.269442 21.3697 -0.0266234 20.1127 0.00194428 18.8272C0.0590797 16.2847 -0.262956 13.6409 1.16283 11.3866C1.52123 10.8204 1.82768 10.2257 2.13933 9.63098C2.53928 8.86485 3.03012 8.16104 3.70536 7.59488C4.48188 6.94562 5.20646 6.23142 6.12323 5.76395C6.2349 5.70682 6.33878 5.61852 6.41929 5.52242C7.32047 4.46802 8.42942 3.64734 9.68121 3.09936C10.9745 2.5332 12.1614 1.76707 13.4729 1.24766C14.8675 0.69448 16.2778 0.162082 17.7866 0.102349C18.9683 0.0556023 20.1604 -0.0950275 21.3394 0.0893642C22.077 0.203635 22.799 0.401012 23.5262 0.577612C24.6065 0.839916 25.6895 1.10222 26.6764 1.62683C28.1048 2.38777 29.5877 3.04742 30.946 3.94601C31.6212 4.3927 32.2835 4.85498 32.9223 5.35102C33.2652 5.61592 33.5275 5.95354 33.8027 6.27557C34.4157 6.99756 35.0208 7.72733 35.6181 8.4623C35.9817 8.909 36.1401 9.48295 36.5063 9.93224C36.753 10.2361 36.953 10.5815 37.2101 10.8802C37.8412 11.6125 38.0048 12.5371 38.2905 13.4097C38.4749 13.9759 38.7034 14.5213 38.9423 15.0666C39.2202 15.7003 39.4046 16.3496 39.3994 17.0638C39.3968 17.7676 39.4436 18.4766 39.6306 19.17C40.0279 20.6296 40.0539 22.1203 39.9448 23.8551Z" fill="#FFD561"/>
<ellipse cx="11.4993" cy="18.501" rx="3.5" ry="2.5" fill="white"/>
<rect x="6.99933" y="15.001" width="9" height="4" fill="#FFD561"/>
<ellipse cx="13.4993" cy="19.001" rx="1.5" ry="1" fill="#292929"/>
<ellipse cx="28.4993" cy="18.501" rx="3.5" ry="2.5" fill="white"/>
<rect x="23.9993" y="15.001" width="9" height="4" fill="#FFD561"/>
<ellipse cx="30.4993" cy="19.001" rx="1.5" ry="1" fill="#292929"/>
<path d="M5.99933 11.001L14.9993 14.001V16.501L5.99933 13.501V11.001Z" fill="#292929"/>
<path d="M23.9993 14.001C24.9993 10.001 26.9993 8.00098 28.9993 8.00098C30.9993 8.00098 32.9993 9.50098 32.9993 11.501V14.001C31.9993 12.001 29.9993 11.001 28.9993 11.001C26.9993 11.001 24.9993 12.501 23.9993 16.001V14.001Z" fill="#292929"/>
<path d="M11.9995 31.001C13.3995 26.8319 15.0995 30.2032 16.4995 30.5013C19.7662 31.8199 20.1328 27.6115 21.9995 29.0011C23.8662 30.3908 24.4995 32.001 26.4995 29.501" stroke="#292929" stroke-width="2" stroke-linecap="round"/>
</svg>
