<svg width="40" height="40" viewBox="0 0 40 40" fill="none" xmlns="http://www.w3.org/2000/svg">
<path d="M39.9871 18.4046C39.9689 20.142 39.9351 21.8821 39.7897 23.6143C39.7144 24.5103 39.5222 25.3803 39.2002 26.24C38.6911 27.6008 38.073 28.9097 37.3563 30.1589C36.8187 31.0965 36.1928 31.9925 35.624 32.9196C35.2812 33.4754 35.0293 34.0831 34.6449 34.6129C33.6087 36.0465 32.1907 36.9528 30.5675 37.5995C29.8611 37.88 29.1703 38.2098 28.5029 38.5708C27.477 39.124 26.3499 39.3032 25.2409 39.5655C24.1943 39.8122 23.1243 39.7759 22.0621 39.8226C20.7688 39.8771 19.4755 39.9654 18.1795 39.9914C17.1459 40.0122 16.1252 39.8668 15.1072 39.6824C13.5282 39.3941 12.0504 38.8513 10.6325 38.1059C9.50533 37.5138 8.37041 36.9321 7.26146 36.3036C5.80451 35.4751 4.72153 34.2337 3.67491 32.9638C3.01526 32.1639 2.42313 31.325 1.88034 30.442C1.28561 29.4707 1.08824 28.3851 0.859696 27.2996C0.462345 25.4037 0.60778 23.4715 0.264968 21.5704C-0.259639 18.6565 0.0364259 15.6803 0.786978 12.8391C0.99734 12.0392 1.14278 11.2289 1.32717 10.4264C1.51935 9.59796 1.68816 8.75651 2.04655 7.97739C2.10109 7.86052 2.17121 7.74365 2.26211 7.65535C2.68543 7.23982 2.86463 6.66327 3.26198 6.21918C3.93462 5.46862 4.77088 4.94142 5.57597 4.37266C6.44598 3.75976 7.43287 3.3702 8.40417 2.95726C10.0351 2.26125 11.6921 1.62237 13.3594 1.01985C14.915 0.456289 16.52 0.152432 18.1795 0.129059C19.3326 0.110879 20.4857 0.0329673 21.6414 0.00439956C22.8387 -0.0267652 24.0281 0.113476 25.2176 0.240732C26.0071 0.326436 26.794 0.417333 27.5705 0.586142C28.6795 0.827669 29.6637 1.37305 30.6818 1.84832C32.053 2.48719 33.0789 3.55459 34.2216 4.49473C36.2032 6.12309 37.3589 8.26047 38.3587 10.5433C38.956 11.9068 39.3586 13.3222 39.7689 14.7401C39.9923 15.5037 39.9196 16.2932 39.9845 17.0697C40.0208 17.5138 39.9923 17.9605 39.9923 18.4072L39.9871 18.4046Z" fill="#FFD561"/>
<path d="M5.0851 12.2467C4.86435 9.95607 8.49245 10.5118 9.21184 11.9662C9.5988 12.7479 9.25858 13.7504 8.51582 14.3321C7.61205 15.0437 6.08237 14.6853 5.52141 13.766C5.23313 13.2933 4.94486 12.8258 5.0851 12.2467Z" fill="#D6674C"/>
<path d="M34.3229 13.9456C34.1281 14.813 33.8035 15.6129 33.027 16.1323C32.4115 16.5427 31.7986 16.2518 31.1934 16.0622C31.1649 16.0518 31.1363 16.0363 31.1103 16.0233C29.991 15.4363 29.9624 15.0572 30.2871 13.943C30.4117 13.5145 30.6221 13.1301 30.9857 12.8393C31.4843 12.4419 32.0219 12.2108 32.6634 12.3744C33.2633 12.525 33.8061 12.7691 34.1593 13.3301C34.284 13.5275 34.3463 13.7145 34.3229 13.9508V13.9456Z" fill="#D6674C"/>
<path d="M25.8383 7.57961C26.8797 7.63414 27.5523 8.17174 27.9081 9.16381C28.1471 9.83386 28.2276 10.5351 28.3938 11.2207C28.4561 11.4778 28.3366 11.5869 28.0951 11.6051C27.986 11.6128 27.8796 11.6362 27.7705 11.6388C27.5757 11.6414 27.3601 11.6882 27.1887 11.6206C26.9758 11.5349 27.1654 11.3038 27.1134 11.1376C26.8927 10.4338 26.8459 9.68063 26.5447 9.0028C26.3525 8.56909 26.0097 8.24445 25.5967 8.00552C25.4072 7.89645 25.2825 7.98994 25.1371 8.112C24.3943 8.7379 24.0047 9.58714 23.6697 10.4649C23.5295 10.8285 23.4022 11.1973 23.249 11.5583C23.2282 11.6051 23.2048 11.6804 23.1685 11.6908C22.7997 11.7869 22.4205 11.818 22.044 11.7453C21.9453 11.7271 21.9245 11.6258 21.9738 11.5323C22.3089 10.909 22.4569 10.2078 22.7789 9.57415C23.0828 8.98202 23.4594 8.4678 23.9476 8.0237C24.1138 7.87048 24.3008 7.77179 24.5164 7.72764C24.9527 7.63674 25.389 7.55363 25.8409 7.5848L25.8383 7.57961Z" fill="#292929"/>
<path d="M17.0628 11.8543C16.6317 11.8413 16.6291 11.8413 16.6187 11.4128C16.5979 10.6363 16.5044 9.87536 16.1486 9.16896C15.9772 8.83134 15.6993 8.60799 15.3877 8.43139C15.076 8.25739 14.7878 8.3405 14.5281 8.58462C13.9463 9.13 13.5126 9.77408 13.2659 10.535C13.0945 11.0596 12.9439 11.592 12.7932 12.1218C12.7621 12.2283 12.6997 12.2647 12.6088 12.2725C12.3154 12.2906 12.0245 12.3114 11.731 12.3166C11.531 12.3192 11.4479 12.2049 11.5207 12.0153C11.8089 11.2544 11.9544 10.4441 12.3543 9.72214C12.6218 9.23908 12.9802 8.83654 13.3828 8.46775C13.6347 8.23921 13.9437 8.15351 14.271 8.09897C14.8761 8.00028 15.4786 7.96392 16.0837 8.0756C16.7589 8.20025 17.216 8.59501 17.4913 9.21051C17.8289 9.95847 17.8887 10.761 17.9172 11.5686C17.9224 11.7375 17.8367 11.8024 17.6835 11.8102C17.4783 11.8232 17.2732 11.8413 17.068 11.8595L17.0628 11.8543Z" fill="#292929"/>
<path d="M29.6223 22.304C29.6821 22.0273 29.5926 21.9213 29.3267 21.8479C28.326 21.5698 27.2955 21.5004 26.2735 21.377C24.3934 21.1455 22.5074 20.9685 20.6143 20.8643C19.7411 20.8167 18.8652 20.7951 17.9913 20.8534C17.7769 20.8516 17.561 20.8442 17.3481 20.848C16.5305 20.8649 15.7103 20.8044 14.8987 20.9339C14.6574 20.908 14.4263 20.9743 14.1898 20.9892C13.2691 21.0432 12.3991 21.3913 11.4798 21.4642C11.3692 21.4732 11.3642 21.549 11.3666 21.653C11.3978 22.9667 11.928 24.0599 12.8346 24.9868C13.3752 25.5412 14.0707 25.9102 14.5991 26.4726C15.3647 27.2856 16.3976 27.626 17.3792 28.0221C18.3243 28.4028 19.3618 28.4896 20.3619 28.6933C20.8706 28.7982 21.3967 28.8829 21.9116 28.8168C23.6156 28.6036 25.2523 28.1511 26.7293 27.2387C27.5259 26.7454 28.1473 26.0728 28.6639 25.2911C29.2654 24.381 29.3971 23.3315 29.6249 22.3046L29.6223 22.304ZM26.7521 25.6762C26.5765 25.8972 26.3767 26.0946 26.1591 26.2751C25.2628 27.0077 24.2377 27.4777 23.1345 27.8122C21.8501 28.2022 20.5651 28.4541 19.2382 28.0345C19.0837 27.9867 18.9214 27.9638 18.7601 27.9358C17.8692 27.7679 17.1169 27.2759 16.3216 26.8891C16.2348 26.8473 16.1649 26.7745 16.0976 26.7023C15.7267 26.3022 15.2958 25.9747 14.8582 25.6537C14.7777 25.5814 14.6869 25.5202 14.6027 25.4524C13.6472 24.6984 13.0348 23.7341 12.7991 22.5372C12.7042 22.0589 12.777 21.9891 13.2569 21.8733C14.9785 21.4595 16.7464 21.4637 18.505 21.3969C20.3487 21.3292 22.2081 21.4424 24.0457 21.6227C25.3193 21.7476 26.5876 21.898 27.8591 22.033L26.7541 25.6793L26.7521 25.6762Z" fill="#292929"/>
<path d="M14.9894 25.5927C15.205 25.4136 15.4418 25.2621 15.5526 24.9789C15.592 24.8806 15.7073 24.7858 15.8111 24.739C16.3954 24.4804 16.9075 24.0843 17.5116 23.8611C18.0164 23.6749 18.5266 23.6588 19.048 23.753C19.2931 23.7986 19.5384 23.8574 19.7838 23.8871C20.5674 23.9773 21.0811 24.4399 21.4481 25.0945C21.5593 25.2922 21.6584 25.3846 21.8586 25.2025C21.9124 25.1544 21.9911 25.1294 22.0636 25.1086C22.6418 24.9254 23.2395 24.7935 23.8325 24.6871C24.5048 24.5664 25.1839 24.7639 25.8537 24.9122C26.2773 25.0067 26.6199 25.2527 26.9992 25.4288C26.4204 26.1982 25.6241 26.6737 24.7832 27.0906C23.6449 27.6583 22.4302 27.9688 21.1791 28.1483C20.9376 28.1827 20.6834 28.1434 20.4384 28.1111C20.1598 28.0752 19.8851 27.9898 19.6046 27.9641C18.5892 27.8704 17.6933 27.4319 16.7902 27.0184C16.6636 26.9605 16.5302 26.8961 16.4291 26.8007C15.9729 26.3699 15.4836 25.9752 14.9899 25.5902L14.9894 25.5927Z" fill="#E06C4F"/>
</svg>
