<svg width="40" height="40" viewBox="0 0 40 40" fill="none" xmlns="http://www.w3.org/2000/svg">
<path d="M20.7778 0.0119689C21.988 0.0431337 23.1983 0.10806 24.4007 0.250899C24.9383 0.315826 25.4447 0.5158 25.9538 0.697594C27.0082 1.07417 28.0937 1.38062 29.0547 1.98834C29.6416 2.36231 30.2337 2.73369 30.7479 3.22194C31.1583 3.6089 31.6232 3.93354 32.0387 4.31531C32.6542 4.88147 33.1398 5.58787 33.8021 6.10209C34.8305 6.89939 35.62 7.91744 36.2122 9.06014C36.6303 9.86783 37.1939 10.5431 37.6977 11.2728C38.6093 12.5896 39.2975 13.9894 39.4845 15.6177C39.5728 16.3865 39.8325 17.1214 39.9338 17.8902C40.0818 18.9913 39.9857 20.0717 39.6533 21.1235C39.4377 21.8091 39.1884 22.4844 38.9443 23.1622C38.8508 23.4245 38.8092 23.692 38.7833 23.9673C38.7028 24.7698 38.4379 25.5126 38.0639 26.219C37.6977 26.9124 37.4198 27.6421 37.2302 28.4057C36.9939 29.3588 36.4433 30.1509 35.9577 30.9794C35.2616 32.1662 34.5371 33.3375 33.4801 34.2205C32.5451 35.0022 31.5816 35.7502 30.5194 36.3683C29.078 37.2097 27.6237 38.007 26.0602 38.594C25.0396 38.9783 23.9826 39.1549 22.9152 39.2926C22.1932 39.3861 21.5206 39.6821 20.8116 39.8406C20.074 40.0068 19.3494 40.0587 18.5963 39.9107C18.1314 39.8198 17.6613 39.7289 17.1887 39.6795C16.5368 39.6094 15.9655 39.2978 15.3577 39.09C14.376 38.755 13.4151 38.3628 12.4516 37.9733C12.1685 37.859 11.9062 37.7266 11.6777 37.5188C11.4128 37.2799 11.1245 37.0669 10.7973 36.9293C10.1247 36.6436 9.52733 36.2099 8.86248 35.9138C8.10154 35.5736 7.50941 34.9918 6.84975 34.501C5.6525 33.605 4.97467 32.3143 4.16698 31.1144C3.64238 30.3379 3.16971 29.5276 2.71522 28.7069C2.06855 27.5331 1.52836 26.3202 1.11024 25.0321C0.824559 24.1569 0.6116 23.2635 0.37267 22.3805C0.0636191 21.2352 -0.115578 20.0717 0.0843956 18.8407C0.286967 17.6019 0.538882 16.3891 0.946621 15.2074C1.26606 14.2828 1.73873 13.4336 2.21659 12.5896C2.44772 12.1818 2.57238 11.7273 2.70483 11.291C2.89442 10.6677 3.16711 10.099 3.57745 9.62371C4.31242 8.76927 4.96428 7.8577 5.5694 6.90458C5.76937 6.59293 6.03168 6.33582 6.32774 6.11248C7.13802 5.50476 7.87559 4.80615 8.65211 4.15948C9.62861 3.3466 10.7142 2.66098 11.8205 2.03508C12.5191 1.64293 13.2957 1.42997 14.0618 1.19883C14.6877 1.00924 15.3214 0.84303 15.9603 0.715774C17.0043 0.508008 18.0535 0.313228 19.1027 0.134031C19.6533 0.0405366 20.2091 -0.0321812 20.7726 0.014566L20.7778 0.0119689Z" fill="#FFD561"/>
<path d="M18.0825 9.37213C18.5857 9.63188 18.949 10.0469 18.8037 10.7528C18.6018 11.724 18.1578 12.5654 17.3667 13.1103C16.7962 13.5027 16.1019 13.6326 15.4077 13.627C14.8829 13.6213 14.3609 13.579 13.9169 13.2289C13.8227 13.1526 13.7178 13.0877 13.6747 12.9663C13.3733 12.1136 13.0612 11.2694 13.3518 10.3293C13.446 10.0272 13.672 9.91986 13.8792 9.77587C14.0514 9.65729 14.2075 9.54153 14.334 9.36083C14.8964 8.56746 16.2392 8.84698 17.0007 9.01638C17.3532 9.09543 17.7515 9.1999 18.0879 9.37495L18.0825 9.37213Z" fill="white"/>
<path d="M28.0086 9.83324C28.4152 10.3058 28.6125 10.8711 28.2328 11.561C28.0086 11.9668 27.8441 12.3959 27.5512 12.7727C27.2283 13.1902 26.9263 13.5641 26.3134 13.5786C25.8051 13.5902 25.3208 13.6453 24.8036 13.5033C24.3521 13.3815 23.9904 13.1496 23.5987 12.9438C23.228 12.7495 23.0606 12.4423 22.9978 12.0567C22.9709 11.8973 22.944 11.7378 22.9021 11.5813C22.7078 10.8276 22.9739 10.1521 23.2818 9.49117C23.3984 9.24186 23.6675 9.11721 23.9246 9.02154C24.5823 8.77803 25.5779 8.79253 26.2745 8.80412C26.433 8.80412 26.5974 8.81572 26.7469 8.865C26.9293 8.92588 27.0877 9.03894 27.2402 9.15199C27.5183 9.35492 27.7903 9.58103 28.0026 9.83034L28.0086 9.83324Z" fill="white"/>
<path d="M17.9399 10.5397C17.8521 10.8762 17.7643 11.2095 17.6765 11.546C17.6138 11.7905 17.4833 11.8921 17.2802 11.9333C16.791 12.0349 16.3094 12.0095 15.8253 11.9175C15.6723 11.8889 15.592 11.819 15.602 11.6032C15.6246 11.1365 15.6346 10.6698 15.6522 10.2032C15.7199 9.91744 15.6798 9.62855 15.6773 9.34283C15.6748 9.07616 15.7601 8.94283 15.9607 8.90473C16.4148 8.81902 16.8738 8.77775 17.3328 8.80949C17.7292 8.83807 17.9675 9.16823 17.9976 9.67617C18.0151 9.97141 17.9649 10.2508 17.9374 10.5397H17.9399Z" fill="#292929"/>
<path d="M25.301 9.99452C25.3114 9.95628 25.3192 9.91804 25.3296 9.87662C25.3634 9.64083 25.4025 9.40822 25.4259 9.16924C25.4441 9.00355 25.5221 8.90158 25.6417 8.87928C26.2397 8.77094 26.8326 8.70084 27.3786 9.15649C27.5034 9.26165 27.558 9.35724 27.5788 9.54205C27.6282 10.0136 27.5814 10.4788 27.5736 10.9472C27.4098 11.4475 27.2538 11.9 26.6974 11.9446C26.3073 11.9765 25.9173 11.9892 25.5273 11.9988C25.3582 12.0019 25.2802 11.9 25.236 11.6897C25.1424 11.2404 25.2672 10.8102 25.2646 10.3705C25.3244 10.2526 25.2282 10.106 25.3036 9.99133L25.301 9.99452Z" fill="#292929"/>
<path d="M19.988 24.9469C20.8003 24.6373 21.6439 24.4046 22.4999 24.2509C22.583 24.5833 22.6141 24.9261 22.5954 25.2669C22.5913 25.3417 22.5809 25.4227 22.531 25.4767C22.4874 25.5245 22.4209 25.5411 22.3586 25.5577C20.8564 25.9317 19.3148 26.1416 17.767 26.1769C17.7254 26.1769 17.6776 26.1769 17.6444 26.154C17.5821 26.1104 17.5862 26.019 17.5987 25.9442C17.6942 25.3853 17.8708 24.0244 18.4214 23.6795C19.1756 23.2079 20.0087 24.2696 19.988 24.9469Z" fill="#D6674C"/>
<path d="M23.4241 25.2501C23.4179 25.0569 23.4512 24.8616 23.4657 24.6683C23.4989 24.2133 23.5363 23.7583 23.4387 23.3054C23.2849 22.6011 22.8569 22.0796 22.2399 21.7866C21.7641 21.5602 21.199 21.5539 20.6733 21.6848C19.4496 21.9903 18.5583 22.7714 17.8062 23.7417C17.3034 24.3879 17.2327 25.1524 17.2016 25.9274C17.1953 26.0708 17.293 26.0853 17.399 26.1019C17.7085 26.1539 18.0181 26.1435 18.3297 26.1248C19.4558 26.0583 20.5881 26.1372 21.7059 25.9253C22.1692 25.8381 22.6409 25.7986 23.0938 25.6635C23.2995 25.6033 23.4304 25.4932 23.4221 25.2501H23.4241ZM22.2025 25.462C21.7703 25.5846 21.3216 25.6054 20.8873 25.703C20.0957 25.8796 19.2896 25.755 18.496 25.8672C18.2861 25.8983 18.2259 25.8235 18.2259 25.5887C18.2259 24.2736 19.0403 23.4571 19.9441 22.6842C20.3368 22.3476 20.798 22.1482 21.2738 21.9674C21.4047 21.9175 21.5002 21.9425 21.6187 22.0256C22.3105 22.5159 22.5411 23.2015 22.4996 24.0118C22.4913 24.1718 22.4747 24.3318 22.4622 24.4917C22.4663 24.4917 22.4705 24.4917 22.4747 24.4917C22.456 24.7286 22.4289 24.9634 22.4206 25.2002C22.4165 25.354 22.3458 25.4205 22.2046 25.462H22.2025Z" fill="#292929"/>
<path d="M15.3332 5.80461C15.82 6.05579 15.814 6.06453 15.4157 6.44101C14.805 7.01817 14.1144 7.48652 13.3953 7.91562C13.1193 8.08004 12.8567 8.26601 12.6009 8.45716C12.4886 8.54017 12.3975 8.5577 12.2791 8.49122C12.1385 8.41302 11.9931 8.34629 11.8533 8.26618C11.6047 8.12368 11.5997 8.0402 11.8432 7.87771C12.2855 7.5833 12.7253 7.27881 13.184 7.00949C13.7938 6.65114 14.3074 6.17936 14.7959 5.6765C14.8714 5.60033 14.9363 5.59646 15.0179 5.63814C15.1244 5.69045 15.2265 5.74767 15.3321 5.80188L15.3332 5.80461Z" fill="#292929"/>
<path d="M28.5451 7.22777C28.6312 7.7688 28.6206 7.76915 28.0813 7.67135C27.2546 7.52136 26.468 7.24245 25.6963 6.91741C25.4004 6.79252 25.095 6.69117 24.7894 6.5984C24.656 6.55708 24.5879 6.49407 24.5713 6.35927C24.551 6.19971 24.5186 6.043 24.5003 5.88297C24.4678 5.59824 24.5321 5.54478 24.8073 5.64466C25.3065 5.82653 25.8124 6.00043 26.3011 6.21036C26.9511 6.48923 27.6354 6.62347 28.33 6.71907C28.4361 6.73477 28.4777 6.78478 28.4924 6.87521C28.5134 6.99194 28.5277 7.10807 28.5466 7.22527L28.5451 7.22777Z" fill="#292929"/>
<path d="M35.0013 22.499C35.0013 23.8797 33.2104 24.999 31.0013 24.999C28.7921 24.999 27.0013 23.8797 27.0013 22.499C27.0013 21.1183 28.7921 19.999 31.0013 19.999C33.2104 19.999 35.0013 21.1183 35.0013 22.499Z" fill="#D6664D" fill-opacity="0.5"/>
<ellipse cx="10.0013" cy="22.499" rx="4" ry="2.5" fill="#D6664D" fill-opacity="0.5"/>
</svg>
