<svg width="40" height="40" viewBox="0 0 40 40" fill="none" xmlns="http://www.w3.org/2000/svg">
<g clip-path="url(#clip0_193_461)">
<path d="M0.0935216 21.3353C0.0935216 20.1354 0.0493715 18.9356 0.106507 17.7383C0.163642 16.4892 0.285704 15.24 0.501261 14.0064C0.649294 13.1649 1.01808 12.3806 1.33232 11.5885C2.20753 9.38878 3.36842 7.34229 4.8072 5.45422C5.10586 5.06207 5.511 4.78158 5.89017 4.47773C6.56541 3.93494 7.24065 3.38956 7.9029 2.83379C8.8716 2.0209 10.0117 1.52486 11.1544 1.01844C12.8581 0.265288 14.6475 0.0393435 16.4862 0.018567C17.3588 0.00817874 18.2288 -0.0151948 19.1014 0.018567C20.1013 0.057523 21.0856 0.228929 22.0803 0.317229C22.6958 0.371768 23.3087 0.462665 23.9216 0.527592C25.2071 0.660042 26.433 1.02883 27.6068 1.54045C29.9728 2.57408 32.3309 3.63368 34.5488 4.96078C35.7876 5.70354 36.9796 6.58135 37.7536 7.80976C38.3249 8.71614 38.8599 9.65887 39.0131 10.812C39.1871 12.0975 39.3378 13.396 39.6157 14.6738C39.8987 15.9697 40.0494 17.2994 39.987 18.6291C39.9351 19.7485 39.7507 20.86 39.6468 21.9768C39.5949 22.5221 39.4339 23.0286 39.2547 23.5402C39.0339 24.1661 39.0183 24.8361 38.9716 25.488C38.8573 27.1163 38.473 28.6876 37.9509 30.2224C37.6341 31.1496 37.0368 31.9365 36.4083 32.6871C35.1513 34.183 33.8294 35.6113 32.1621 36.6735C31.8167 36.8943 31.4427 37.0787 31.0687 37.2475C29.5858 37.9175 28.1029 38.5876 26.581 39.1667C25.3214 39.6472 23.9943 39.7952 22.6672 39.9458C21.1609 40.1147 19.6806 39.8731 18.1951 39.7069C17.1614 39.59 16.1304 39.4576 15.0942 39.3641C14.2138 39.2862 13.3697 39.0732 12.5387 38.7979C11.8738 38.5772 11.1804 38.4214 10.5701 38.0552C9.41699 37.3644 8.22493 36.7411 7.05366 36.0814C5.44867 35.1802 4.39426 33.8116 3.66968 32.1443C3.24376 31.1652 2.72695 30.225 2.18416 29.3005C1.71409 28.498 1.41283 27.6124 1.05703 26.7554C0.649294 25.7737 0.340243 24.7608 0.129881 23.7246C-0.0285404 22.9429 -0.010361 22.1352 0.0104155 21.3353C0.0363862 21.3353 0.0623568 21.3353 0.0883275 21.3353H0.0935216Z" fill="#FFD561"/>
<path d="M7.61101 8.68715L16.1222 12.2787L15.3586 13.3331L7.00013 9.53072L7.61101 8.68715Z" fill="#292929" stroke="black"/>
<path d="M30.9579 9.00561L22.8203 13.3781L22.4786 12.1218L30.6845 8.0006L30.9579 9.00561Z" fill="#292929" stroke="black"/>
<circle cx="14.0001" cy="17" r="2" fill="#292929"/>
<circle cx="26" cy="17" r="2" fill="#292929"/>
<path d="M35.0001 1V5M35.0001 5H39.0001M35.0001 5H31.0001M35.0001 5V9" stroke="#D63333" stroke-width="1.5" stroke-linecap="round"/>
</g>
<path d="M27.0151 32.6181C26.4202 32.4386 26.0572 32.0482 25.7222 31.6236C25.6044 31.4743 25.64 31.2844 25.6535 31.1025C25.7096 30.3797 25.6539 29.7349 25.4531 29.0308C25.4531 29.0308 25.1796 28.6146 24.9531 28.5308C23.8574 28.1253 22.9369 27.9599 21.7527 28.0742C19.0188 28.3342 16.7058 29.6074 14.5692 31.3602C14.3875 31.5083 14.1909 31.655 14.1064 31.9041C14.0352 32.1174 13.9009 32.023 13.7912 31.9662C13.4005 31.7647 13.0907 31.4591 12.8197 31.1109C12.6297 30.8659 12.8125 30.6938 12.9698 30.5286C13.637 29.8166 14.4529 29.3262 15.251 28.8008C17.0882 27.5873 19.0866 26.925 21.21 26.8495C22.8999 26.7923 24.5086 27.152 25.8465 28.285C26.7832 29.0786 27.1048 30.1524 27.0392 31.3999C27.0178 31.7902 26.9552 32.1774 27.0125 32.6252L27.0151 32.6181Z" fill="#292929"/>
<defs>
<clipPath id="clip0_193_461">
<rect width="40" height="40" fill="white"/>
</clipPath>
</defs>
</svg>
